<svg width="24" height="24" viewBox="0 0 24 24" fill="none" xmlns="http://www.w3.org/2000/svg">
<path d="M12 4C16.4183 4 20 7.58172 20 12C20 16.4183 16.4183 20 12 20C7.58172 20 4 16.4183 4 12C4 7.58172 7.58172 4 12 4ZM14.2422 7.03027C13.7065 6.89656 13.1642 7.22214 13.0303 7.75781L11.458 14.0439L9.70703 12.293C9.31652 11.9025 8.68347 11.9025 8.29297 12.293C7.90253 12.6835 7.90254 13.3165 8.29297 13.707L11.2803 16.6943C11.8354 17.2493 12.7841 16.9871 12.9746 16.2256L14.9697 8.24219C15.1035 7.70651 14.7778 7.16426 14.2422 7.03027Z" fill="white"/>
</svg>
