<svg width="24" height="24" viewBox="0 0 24 24" fill="none" xmlns="http://www.w3.org/2000/svg">
<path fill-rule="evenodd" clip-rule="evenodd" d="M10.6977 6.27936C11.2736 5.27164 12.7264 5.27164 13.3022 6.27936L18.7173 15.7559C19.2886 16.7558 18.5671 17.9999 17.4155 18.0001H6.58444C5.4329 17.9998 4.71132 16.7558 5.28269 15.7559L10.6977 6.27936ZM12.0005 15.0001C11.4482 15.0001 11.0005 15.4478 11.0005 16.0001C11.0005 16.5523 11.4482 17.0001 12.0005 17.0001C12.5525 16.9998 13.0004 16.5522 13.0005 16.0001C13.0005 15.4479 12.5525 15.0003 12.0005 15.0001ZM12.0005 8.00007C11.4482 8.00007 11.0005 8.44778 11.0005 9.00007V13.0001C11.0005 13.5523 11.4482 14.0001 12.0005 14.0001C12.5525 13.9998 13.0004 13.5522 13.0005 13.0001V9.00007C13.0005 8.44794 12.5525 8.00032 12.0005 8.00007Z" fill="white"/>
</svg>
